<svg xmlns="http://www.w3.org/2000/svg" xmlns:xlink="http://www.w3.org/1999/xlink" version="1.1" width="256" height="256" viewBox="0 0 256 256" xml:space="preserve">

<defs>
</defs>
<g style="stroke: none; stroke-width: 0; stroke-dasharray: none; stroke-linecap: butt; stroke-linejoin: miter; stroke-miterlimit: 10; fill: none; fill-rule: nonzero; opacity: 1;" transform="translate(1.4065934065934016 1.4065934065934016) scale(2.81 2.81)" >
	<path d="M 25.988 80.96 c -0.099 0 -0.198 -0.015 -0.295 -0.045 c -0.358 -0.11 -0.625 -0.412 -0.689 -0.782 l -3.489 -19.836 L 8.452 56.868 c -0.342 -0.09 -0.612 -0.354 -0.708 -0.694 l -4.765 -16.8 c -0.073 -0.255 -0.041 -0.529 0.089 -0.761 l 9.902 -17.7 c 0.084 -0.15 0.205 -0.276 0.352 -0.365 L 31.928 9.194 c 0.157 -0.096 0.337 -0.146 0.521 -0.146 l 23.01 -0.007 l 0 0 c 0.189 0 0.375 0.054 0.535 0.155 l 18.042 11.44 c 0.106 0.067 0.199 0.154 0.273 0.256 L 86.868 38.14 c 0.174 0.239 0.233 0.543 0.161 0.831 l -4.058 16.22 c -0.103 0.409 -0.451 0.71 -0.871 0.752 l -15.794 1.564 l -8.869 13.989 c -0.275 0.436 -0.838 0.589 -1.298 0.356 l -13.916 -7.069 L 26.703 80.659 C 26.512 80.854 26.253 80.96 25.988 80.96 z M 9.512 55.079 l 13.13 3.446 c 0.378 0.099 0.663 0.409 0.731 0.794 l 3.263 18.548 l 14.671 -15.006 c 0.305 -0.313 0.778 -0.391 1.167 -0.192 l 13.761 6.989 l 8.643 -13.633 c 0.165 -0.26 0.44 -0.43 0.746 -0.46 l 15.579 -1.543 l 3.772 -15.083 L 72.805 22.223 L 55.169 11.041 L 32.73 11.048 l -18.144 11.07 L 5.016 39.227 L 9.512 55.079 z" style="stroke: none; stroke-width: 1; stroke-dasharray: none; stroke-linecap: butt; stroke-linejoin: miter; stroke-miterlimit: 10; fill: rgb(0,0,0); fill-rule: nonzero; opacity: 1;" transform=" matrix(1 0 0 1 0 0) " stroke-linecap="round" />
	<path d="M 52.081 46.845 H 33.415 c -0.075 0 -0.15 -0.009 -0.224 -0.025 L 18.47 43.438 c -0.365 -0.084 -0.653 -0.365 -0.746 -0.728 c -0.092 -0.363 0.026 -0.748 0.306 -0.996 l 15.702 -13.907 c 0.153 -0.136 0.345 -0.222 0.549 -0.245 l 20.691 -2.381 c 0.272 -0.033 0.548 0.051 0.759 0.229 l 14.443 12.174 c 0.265 0.224 0.396 0.568 0.345 0.912 c -0.051 0.343 -0.276 0.635 -0.595 0.772 l -17.449 7.495 C 52.351 46.817 52.217 46.845 52.081 46.845 z M 33.528 44.845 h 18.347 l 15.772 -6.774 L 54.772 27.218 l -19.95 2.296 l -14.012 12.41 L 33.528 44.845 z" style="stroke: none; stroke-width: 1; stroke-dasharray: none; stroke-linecap: butt; stroke-linejoin: miter; stroke-miterlimit: 10; fill: rgb(0,0,0); fill-rule: nonzero; opacity: 1;" transform=" matrix(1 0 0 1 0 0) " stroke-linecap="round" />
	<path d="M 22.388 60.492 c -0.077 0 -0.154 -0.009 -0.231 -0.027 c -0.375 -0.089 -0.665 -0.385 -0.746 -0.761 l -3.56 -16.407 L 3.718 40.076 c -0.539 -0.123 -0.875 -0.659 -0.753 -1.197 c 0.123 -0.539 0.66 -0.874 1.197 -0.753 l 14.753 3.363 c 0.378 0.086 0.673 0.384 0.755 0.763 l 3.252 14.988 l 9.714 -12.023 c 0.348 -0.43 0.977 -0.495 1.406 -0.149 c 0.43 0.347 0.497 0.977 0.149 1.407 L 23.166 60.121 C 22.974 60.358 22.686 60.492 22.388 60.492 z" style="stroke: none; stroke-width: 1; stroke-dasharray: none; stroke-linecap: butt; stroke-linejoin: miter; stroke-miterlimit: 10; fill: rgb(0,0,0); fill-rule: nonzero; opacity: 1;" transform=" matrix(1 0 0 1 0 0) " stroke-linecap="round" />
	<path d="M 34.396 29.557 c -0.11 0 -0.222 -0.018 -0.329 -0.056 l -20.553 -7.156 c -0.522 -0.182 -0.797 -0.751 -0.616 -1.273 c 0.182 -0.522 0.753 -0.799 1.273 -0.616 l 19.065 6.638 l -1.782 -16.942 c -0.058 -0.549 0.341 -1.041 0.89 -1.099 c 0.547 -0.051 1.041 0.341 1.099 0.89 l 1.946 18.509 c 0.036 0.34 -0.105 0.675 -0.374 0.888 C 34.837 29.482 34.618 29.557 34.396 29.557 z" style="stroke: none; stroke-width: 1; stroke-dasharray: none; stroke-linecap: butt; stroke-linejoin: miter; stroke-miterlimit: 10; fill: rgb(0,0,0); fill-rule: nonzero; opacity: 1;" transform=" matrix(1 0 0 1 0 0) " stroke-linecap="round" />
	<path d="M 55.087 27.175 c -0.224 0 -0.443 -0.075 -0.623 -0.217 c -0.244 -0.195 -0.384 -0.493 -0.377 -0.806 l 0.372 -16.135 c 0.013 -0.552 0.466 -1.036 1.023 -0.977 c 0.552 0.013 0.989 0.47 0.977 1.022 l -0.342 14.817 l 17.137 -4.37 c 0.532 -0.136 1.079 0.187 1.216 0.722 c 0.137 0.535 -0.187 1.08 -0.722 1.216 l -18.414 4.695 C 55.252 27.165 55.169 27.175 55.087 27.175 z" style="stroke: none; stroke-width: 1; stroke-dasharray: none; stroke-linecap: butt; stroke-linejoin: miter; stroke-miterlimit: 10; fill: rgb(0,0,0); fill-rule: nonzero; opacity: 1;" transform=" matrix(1 0 0 1 0 0) " stroke-linecap="round" />
	<path d="M 82.003 55.948 c -0.304 0 -0.604 -0.138 -0.801 -0.399 L 68.73 38.95 c -0.229 -0.306 -0.265 -0.717 -0.09 -1.058 c 0.172 -0.334 0.516 -0.543 0.89 -0.543 c 0.008 0 0.016 0 0.022 0 l 16.529 0.379 c 0.553 0.012 0.99 0.47 0.978 1.022 s -0.486 0.985 -1.022 0.977 l -14.47 -0.332 l 11.234 14.951 c 0.331 0.441 0.242 1.068 -0.199 1.4 C 82.423 55.883 82.212 55.948 82.003 55.948 z" style="stroke: none; stroke-width: 1; stroke-dasharray: none; stroke-linecap: butt; stroke-linejoin: miter; stroke-miterlimit: 10; fill: rgb(0,0,0); fill-rule: nonzero; opacity: 1;" transform=" matrix(1 0 0 1 0 0) " stroke-linecap="round" />
	<path d="M 42.022 64.561 c -0.067 0 -0.135 -0.007 -0.203 -0.021 l -19.634 -4.068 c -0.541 -0.112 -0.888 -0.642 -0.776 -1.183 c 0.112 -0.54 0.639 -0.887 1.182 -0.776 l 18.92 3.921 l 9.7 -17.083 c 0.144 -0.253 0.391 -0.431 0.676 -0.487 c 0.288 -0.055 0.582 0.015 0.812 0.194 l 13.642 10.716 c 0.434 0.341 0.51 0.97 0.168 1.404 c -0.341 0.434 -0.969 0.511 -1.404 0.168 l -12.728 -9.998 l -9.485 16.706 C 42.711 64.371 42.376 64.561 42.022 64.561 z" style="stroke: none; stroke-width: 1; stroke-dasharray: none; stroke-linecap: butt; stroke-linejoin: miter; stroke-miterlimit: 10; fill: rgb(0,0,0); fill-rule: nonzero; opacity: 1;" transform=" matrix(1 0 0 1 0 0) " stroke-linecap="round" />
	<path d="M 52.081 46.845 c -0.252 0 -0.505 -0.095 -0.699 -0.285 L 33.696 29.272 c -0.395 -0.386 -0.402 -1.02 -0.016 -1.415 c 0.388 -0.394 1.02 -0.401 1.415 -0.016 L 52.78 45.129 c 0.395 0.386 0.402 1.019 0.016 1.415 C 52.601 46.744 52.341 46.845 52.081 46.845 z" style="stroke: none; stroke-width: 1; stroke-dasharray: none; stroke-linecap: butt; stroke-linejoin: miter; stroke-miterlimit: 10; fill: rgb(0,0,0); fill-rule: nonzero; opacity: 1;" transform=" matrix(1 0 0 1 0 0) " stroke-linecap="round" />
	<circle cx="13.841000000000001" cy="21.401" r="2.941" style="stroke: none; stroke-width: 1; stroke-dasharray: none; stroke-linecap: butt; stroke-linejoin: miter; stroke-miterlimit: 10; fill: rgb(241,123,123); fill-rule: nonzero; opacity: 1;" transform="  matrix(1 0 0 1 0 0) "/>
	<path d="M 13.842 25.341 c -2.173 0 -3.94 -1.768 -3.94 -3.941 s 1.768 -3.94 3.94 -3.94 s 3.941 1.768 3.941 3.94 S 16.015 25.341 13.842 25.341 z M 13.842 19.46 c -1.07 0 -1.94 0.871 -1.94 1.94 c 0 1.07 0.871 1.941 1.94 1.941 c 1.07 0 1.941 -0.871 1.941 -1.941 C 15.783 20.331 14.913 19.46 13.842 19.46 z" style="stroke: none; stroke-width: 1; stroke-dasharray: none; stroke-linecap: butt; stroke-linejoin: miter; stroke-miterlimit: 10; fill: rgb(0,0,0); fill-rule: nonzero; opacity: 1;" transform=" matrix(1 0 0 1 0 0) " stroke-linecap="round" />
	<circle cx="34.393" cy="28.553" r="6.003" style="stroke: none; stroke-width: 1; stroke-dasharray: none; stroke-linecap: butt; stroke-linejoin: miter; stroke-miterlimit: 10; fill: rgb(241,123,123); fill-rule: nonzero; opacity: 1;" transform="  matrix(1 0 0 1 0 0) "/>
	<path d="M 34.396 35.56 c -3.862 0 -7.003 -3.142 -7.003 -7.003 s 3.142 -7.003 7.003 -7.003 s 7.003 3.142 7.003 7.003 S 38.257 35.56 34.396 35.56 z M 34.396 23.553 c -2.759 0 -5.003 2.245 -5.003 5.003 s 2.245 5.003 5.003 5.003 s 5.003 -2.245 5.003 -5.003 S 37.154 23.553 34.396 23.553 z" style="stroke: none; stroke-width: 1; stroke-dasharray: none; stroke-linecap: butt; stroke-linejoin: miter; stroke-miterlimit: 10; fill: rgb(0,0,0); fill-rule: nonzero; opacity: 1;" transform=" matrix(1 0 0 1 0 0) " stroke-linecap="round" />
	<circle cx="55.083" cy="26.173000000000002" r="5.483" style="stroke: none; stroke-width: 1; stroke-dasharray: none; stroke-linecap: butt; stroke-linejoin: miter; stroke-miterlimit: 10; fill: rgb(126,198,197); fill-rule: nonzero; opacity: 1;" transform="  matrix(1 0 0 1 0 0) "/>
	<path d="M 55.087 32.658 c -3.574 0 -6.482 -2.908 -6.482 -6.483 c 0 -3.574 2.908 -6.482 6.482 -6.482 s 6.482 2.908 6.482 6.482 C 61.569 29.75 58.661 32.658 55.087 32.658 z M 55.087 21.693 c -2.472 0 -4.482 2.011 -4.482 4.482 s 2.011 4.483 4.482 4.483 s 4.482 -2.011 4.482 -4.483 S 57.559 21.693 55.087 21.693 z" style="stroke: none; stroke-width: 1; stroke-dasharray: none; stroke-linecap: butt; stroke-linejoin: miter; stroke-miterlimit: 10; fill: rgb(0,0,0); fill-rule: nonzero; opacity: 1;" transform=" matrix(1 0 0 1 0 0) " stroke-linecap="round" />
	<circle cx="52.084" cy="45.844" r="6.744" style="stroke: none; stroke-width: 1; stroke-dasharray: none; stroke-linecap: butt; stroke-linejoin: miter; stroke-miterlimit: 10; fill: rgb(247,191,80); fill-rule: nonzero; opacity: 1;" transform="  matrix(1 0 0 1 0 0) "/>
	<path d="M 52.081 53.589 c -4.27 0 -7.744 -3.474 -7.744 -7.744 c 0 -4.27 3.474 -7.744 7.744 -7.744 c 4.271 0 7.744 3.474 7.744 7.744 C 59.825 50.115 56.352 53.589 52.081 53.589 z M 52.081 40.101 c -3.167 0 -5.743 2.577 -5.743 5.744 c 0 3.167 2.576 5.744 5.743 5.744 s 5.744 -2.577 5.744 -5.744 C 57.825 42.677 55.248 40.101 52.081 40.101 z" style="stroke: none; stroke-width: 1; stroke-dasharray: none; stroke-linecap: butt; stroke-linejoin: miter; stroke-miterlimit: 10; fill: rgb(0,0,0); fill-rule: nonzero; opacity: 1;" transform=" matrix(1 0 0 1 0 0) " stroke-linecap="round" />
	<circle cx="18.689" cy="42.458999999999996" r="4.479" style="stroke: none; stroke-width: 1; stroke-dasharray: none; stroke-linecap: butt; stroke-linejoin: miter; stroke-miterlimit: 10; fill: rgb(247,191,80); fill-rule: nonzero; opacity: 1;" transform="  matrix(1 0 0 1 0 0) "/>
	<path d="M 18.693 47.942 c -3.021 0 -5.479 -2.458 -5.479 -5.479 s 2.458 -5.479 5.479 -5.479 s 5.479 2.458 5.479 5.479 S 21.714 47.942 18.693 47.942 z M 18.693 38.984 c -1.918 0 -3.479 1.561 -3.479 3.479 s 1.561 3.479 3.479 3.479 c 1.918 0 3.479 -1.561 3.479 -3.479 S 20.612 38.984 18.693 38.984 z" style="stroke: none; stroke-width: 1; stroke-dasharray: none; stroke-linecap: butt; stroke-linejoin: miter; stroke-miterlimit: 10; fill: rgb(0,0,0); fill-rule: nonzero; opacity: 1;" transform=" matrix(1 0 0 1 0 0) " stroke-linecap="round" />
	<circle cx="8.701" cy="55.901" r="2.941" style="stroke: none; stroke-width: 1; stroke-dasharray: none; stroke-linecap: butt; stroke-linejoin: miter; stroke-miterlimit: 10; fill: rgb(126,198,197); fill-rule: nonzero; opacity: 1;" transform="  matrix(1 0 0 1 0 0) "/>
	<path d="M 8.706 59.842 c -2.173 0 -3.941 -1.768 -3.941 -3.94 s 1.768 -3.94 3.941 -3.94 s 3.94 1.768 3.94 3.94 S 10.878 59.842 8.706 59.842 z M 8.706 53.961 c -1.07 0 -1.941 0.87 -1.941 1.94 s 0.871 1.94 1.941 1.94 c 1.07 0 1.94 -0.87 1.94 -1.94 S 9.775 53.961 8.706 53.961 z" style="stroke: none; stroke-width: 1; stroke-dasharray: none; stroke-linecap: butt; stroke-linejoin: miter; stroke-miterlimit: 10; fill: rgb(0,0,0); fill-rule: nonzero; opacity: 1;" transform=" matrix(1 0 0 1 0 0) " stroke-linecap="round" />
	<circle cx="3.941" cy="39.101" r="2.941" style="stroke: none; stroke-width: 1; stroke-dasharray: none; stroke-linecap: butt; stroke-linejoin: miter; stroke-miterlimit: 10; fill: rgb(247,191,80); fill-rule: nonzero; opacity: 1;" transform="  matrix(1 0 0 1 0 0) "/>
	<path d="M 3.94 43.042 c -2.173 0 -3.94 -1.768 -3.94 -3.941 s 1.768 -3.94 3.94 -3.94 s 3.941 1.768 3.941 3.94 S 6.113 43.042 3.94 43.042 z M 3.94 37.16 c -1.07 0 -1.94 0.871 -1.94 1.94 c 0 1.07 0.871 1.941 1.94 1.941 c 1.07 0 1.941 -0.871 1.941 -1.941 C 5.881 38.031 5.011 37.16 3.94 37.16 z" style="stroke: none; stroke-width: 1; stroke-dasharray: none; stroke-linecap: butt; stroke-linejoin: miter; stroke-miterlimit: 10; fill: rgb(0,0,0); fill-rule: nonzero; opacity: 1;" transform=" matrix(1 0 0 1 0 0) " stroke-linecap="round" />
	<circle cx="32.451" cy="10.051" r="2.941" style="stroke: none; stroke-width: 1; stroke-dasharray: none; stroke-linecap: butt; stroke-linejoin: miter; stroke-miterlimit: 10; fill: rgb(247,191,80); fill-rule: nonzero; opacity: 1;" transform="  matrix(1 0 0 1 0 0) "/>
	<path d="M 32.449 13.988 c -2.173 0 -3.94 -1.768 -3.94 -3.94 s 1.768 -3.941 3.94 -3.941 s 3.941 1.768 3.941 3.941 S 34.622 13.988 32.449 13.988 z M 32.449 8.107 c -1.07 0 -1.94 0.871 -1.94 1.941 c 0 1.07 0.871 1.94 1.94 1.94 c 1.07 0 1.941 -0.871 1.941 -1.94 C 34.39 8.978 33.52 8.107 32.449 8.107 z" style="stroke: none; stroke-width: 1; stroke-dasharray: none; stroke-linecap: butt; stroke-linejoin: miter; stroke-miterlimit: 10; fill: rgb(0,0,0); fill-rule: nonzero; opacity: 1;" transform=" matrix(1 0 0 1 0 0) " stroke-linecap="round" />
	<circle cx="55.461000000000006" cy="10.041" r="2.941" style="stroke: none; stroke-width: 1; stroke-dasharray: none; stroke-linecap: butt; stroke-linejoin: miter; stroke-miterlimit: 10; fill: rgb(247,191,80); fill-rule: nonzero; opacity: 1;" transform="  matrix(1 0 0 1 0 0) "/>
	<path d="M 55.459 13.981 c -2.173 0 -3.94 -1.768 -3.94 -3.94 S 53.286 6.1 55.459 6.1 s 3.94 1.768 3.94 3.941 S 57.632 13.981 55.459 13.981 z M 55.459 8.1 c -1.07 0 -1.94 0.871 -1.94 1.941 c 0 1.07 0.87 1.94 1.94 1.94 s 1.94 -0.871 1.94 -1.94 C 57.399 8.97 56.529 8.1 55.459 8.1 z" style="stroke: none; stroke-width: 1; stroke-dasharray: none; stroke-linecap: butt; stroke-linejoin: miter; stroke-miterlimit: 10; fill: rgb(0,0,0); fill-rule: nonzero; opacity: 1;" transform=" matrix(1 0 0 1 0 0) " stroke-linecap="round" />
	<circle cx="73.501" cy="21.480999999999998" r="2.941" style="stroke: none; stroke-width: 1; stroke-dasharray: none; stroke-linecap: butt; stroke-linejoin: miter; stroke-miterlimit: 10; fill: rgb(126,198,197); fill-rule: nonzero; opacity: 1;" transform="  matrix(1 0 0 1 0 0) "/>
	<path d="M 73.501 25.421 c -2.173 0 -3.94 -1.768 -3.94 -3.941 s 1.768 -3.94 3.94 -3.94 s 3.941 1.768 3.941 3.94 S 75.674 25.421 73.501 25.421 z M 73.501 19.54 c -1.07 0 -1.94 0.871 -1.94 1.94 c 0 1.07 0.87 1.941 1.94 1.941 s 1.941 -0.871 1.941 -1.941 C 75.442 20.411 74.571 19.54 73.501 19.54 z" style="stroke: none; stroke-width: 1; stroke-dasharray: none; stroke-linecap: butt; stroke-linejoin: miter; stroke-miterlimit: 10; fill: rgb(0,0,0); fill-rule: nonzero; opacity: 1;" transform=" matrix(1 0 0 1 0 0) " stroke-linecap="round" />
	<circle cx="86.061" cy="38.731" r="2.941" style="stroke: none; stroke-width: 1; stroke-dasharray: none; stroke-linecap: butt; stroke-linejoin: miter; stroke-miterlimit: 10; fill: rgb(241,123,123); fill-rule: nonzero; opacity: 1;" transform="  matrix(1 0 0 1 0 0) "/>
	<path d="M 86.06 42.669 c -2.173 0 -3.94 -1.768 -3.94 -3.941 s 1.768 -3.94 3.94 -3.94 S 90 36.556 90 38.729 S 88.232 42.669 86.06 42.669 z M 86.06 36.788 c -1.07 0 -1.94 0.871 -1.94 1.94 c 0 1.07 0.87 1.941 1.94 1.941 S 88 39.799 88 38.729 C 88 37.659 87.13 36.788 86.06 36.788 z" style="stroke: none; stroke-width: 1; stroke-dasharray: none; stroke-linecap: butt; stroke-linejoin: miter; stroke-miterlimit: 10; fill: rgb(0,0,0); fill-rule: nonzero; opacity: 1;" transform=" matrix(1 0 0 1 0 0) " stroke-linecap="round" />
	<circle cx="69.52600000000001" cy="38.346" r="3.436" style="stroke: none; stroke-width: 1; stroke-dasharray: none; stroke-linecap: butt; stroke-linejoin: miter; stroke-miterlimit: 10; fill: rgb(247,191,80); fill-rule: nonzero; opacity: 1;" transform="  matrix(1 0 0 1 0 0) "/>
	<path d="M 69.53 42.786 c -2.445 0 -4.436 -1.99 -4.436 -4.436 s 1.99 -4.436 4.436 -4.436 c 2.446 0 4.437 1.99 4.437 4.436 S 71.977 42.786 69.53 42.786 z M 69.53 35.914 c -1.343 0 -2.436 1.093 -2.436 2.436 c 0 1.343 1.093 2.436 2.436 2.436 c 1.344 0 2.437 -1.093 2.437 -2.436 C 71.967 37.007 70.874 35.914 69.53 35.914 z" style="stroke: none; stroke-width: 1; stroke-dasharray: none; stroke-linecap: butt; stroke-linejoin: miter; stroke-miterlimit: 10; fill: rgb(0,0,0); fill-rule: nonzero; opacity: 1;" transform=" matrix(1 0 0 1 0 0) " stroke-linecap="round" />
	<circle cx="82.001" cy="54.951" r="2.941" style="stroke: none; stroke-width: 1; stroke-dasharray: none; stroke-linecap: butt; stroke-linejoin: miter; stroke-miterlimit: 10; fill: rgb(247,191,80); fill-rule: nonzero; opacity: 1;" transform="  matrix(1 0 0 1 0 0) "/>
	<path d="M 82.002 58.889 c -2.173 0 -3.94 -1.768 -3.94 -3.94 s 1.768 -3.94 3.94 -3.94 s 3.941 1.768 3.941 3.94 S 84.175 58.889 82.002 58.889 z M 82.002 53.008 c -1.07 0 -1.94 0.87 -1.94 1.94 s 0.87 1.94 1.94 1.94 s 1.941 -0.87 1.941 -1.94 S 83.072 53.008 82.002 53.008 z" style="stroke: none; stroke-width: 1; stroke-dasharray: none; stroke-linecap: butt; stroke-linejoin: miter; stroke-miterlimit: 10; fill: rgb(0,0,0); fill-rule: nonzero; opacity: 1;" transform=" matrix(1 0 0 1 0 0) " stroke-linecap="round" />
	<circle cx="65.721" cy="56.561" r="2.941" style="stroke: none; stroke-width: 1; stroke-dasharray: none; stroke-linecap: butt; stroke-linejoin: miter; stroke-miterlimit: 10; fill: rgb(126,198,197); fill-rule: nonzero; opacity: 1;" transform="  matrix(1 0 0 1 0 0) "/>
	<path d="M 65.723 60.501 c -2.173 0 -3.94 -1.768 -3.94 -3.94 s 1.768 -3.94 3.94 -3.94 s 3.94 1.768 3.94 3.94 S 67.896 60.501 65.723 60.501 z M 65.723 54.62 c -1.07 0 -1.94 0.87 -1.94 1.94 s 0.87 1.94 1.94 1.94 s 1.94 -0.87 1.94 -1.94 S 66.793 54.62 65.723 54.62 z" style="stroke: none; stroke-width: 1; stroke-dasharray: none; stroke-linecap: butt; stroke-linejoin: miter; stroke-miterlimit: 10; fill: rgb(0,0,0); fill-rule: nonzero; opacity: 1;" transform=" matrix(1 0 0 1 0 0) " stroke-linecap="round" />
	<circle cx="56.591" cy="70.961" r="2.941" style="stroke: none; stroke-width: 1; stroke-dasharray: none; stroke-linecap: butt; stroke-linejoin: miter; stroke-miterlimit: 10; fill: rgb(247,191,80); fill-rule: nonzero; opacity: 1;" transform="  matrix(1 0 0 1 0 0) "/>
	<path d="M 56.593 74.902 c -2.173 0 -3.941 -1.768 -3.941 -3.94 s 1.769 -3.94 3.941 -3.94 s 3.94 1.768 3.94 3.94 S 58.766 74.902 56.593 74.902 z M 56.593 69.021 c -1.07 0 -1.941 0.87 -1.941 1.94 s 0.871 1.94 1.941 1.94 s 1.94 -0.87 1.94 -1.94 S 57.663 69.021 56.593 69.021 z" style="stroke: none; stroke-width: 1; stroke-dasharray: none; stroke-linecap: butt; stroke-linejoin: miter; stroke-miterlimit: 10; fill: rgb(0,0,0); fill-rule: nonzero; opacity: 1;" transform=" matrix(1 0 0 1 0 0) " stroke-linecap="round" />
	<circle cx="42.017" cy="63.557" r="4.427" style="stroke: none; stroke-width: 1; stroke-dasharray: none; stroke-linecap: butt; stroke-linejoin: miter; stroke-miterlimit: 10; fill: rgb(241,123,123); fill-rule: nonzero; opacity: 1;" transform="  matrix(1 0 0 1 0 0) "/>
	<path d="M 42.022 68.987 c -2.992 0 -5.427 -2.435 -5.427 -5.427 s 2.435 -5.427 5.427 -5.427 s 5.426 2.435 5.426 5.427 S 45.014 68.987 42.022 68.987 z M 42.022 60.134 c -1.89 0 -3.427 1.537 -3.427 3.427 s 1.537 3.427 3.427 3.427 c 1.889 0 3.426 -1.537 3.426 -3.427 S 43.911 60.134 42.022 60.134 z" style="stroke: none; stroke-width: 1; stroke-dasharray: none; stroke-linecap: butt; stroke-linejoin: miter; stroke-miterlimit: 10; fill: rgb(0,0,0); fill-rule: nonzero; opacity: 1;" transform=" matrix(1 0 0 1 0 0) " stroke-linecap="round" />
	<circle cx="25.991" cy="79.961" r="2.941" style="stroke: none; stroke-width: 1; stroke-dasharray: none; stroke-linecap: butt; stroke-linejoin: miter; stroke-miterlimit: 10; fill: rgb(126,198,197); fill-rule: nonzero; opacity: 1;" transform="  matrix(1 0 0 1 0 0) "/>
	<path d="M 25.988 83.9 c -2.173 0 -3.941 -1.768 -3.941 -3.94 s 1.768 -3.941 3.941 -3.941 s 3.94 1.769 3.94 3.941 S 28.161 83.9 25.988 83.9 z M 25.988 78.019 c -1.07 0 -1.941 0.871 -1.941 1.941 s 0.871 1.94 1.941 1.94 c 1.07 0 1.94 -0.87 1.94 -1.94 S 27.058 78.019 25.988 78.019 z" style="stroke: none; stroke-width: 1; stroke-dasharray: none; stroke-linecap: butt; stroke-linejoin: miter; stroke-miterlimit: 10; fill: rgb(0,0,0); fill-rule: nonzero; opacity: 1;" transform=" matrix(1 0 0 1 0 0) " stroke-linecap="round" />
	<circle cx="22.391" cy="59.491" r="2.941" style="stroke: none; stroke-width: 1; stroke-dasharray: none; stroke-linecap: butt; stroke-linejoin: miter; stroke-miterlimit: 10; fill: rgb(247,191,80); fill-rule: nonzero; opacity: 1;" transform="  matrix(1 0 0 1 0 0) "/>
	<path d="M 22.388 63.433 c -2.173 0 -3.941 -1.768 -3.941 -3.94 s 1.768 -3.94 3.941 -3.94 s 3.94 1.768 3.94 3.94 S 24.561 63.433 22.388 63.433 z M 22.388 57.552 c -1.07 0 -1.941 0.87 -1.941 1.94 s 0.871 1.94 1.941 1.94 c 1.07 0 1.94 -0.87 1.94 -1.94 S 23.458 57.552 22.388 57.552 z" style="stroke: none; stroke-width: 1; stroke-dasharray: none; stroke-linecap: butt; stroke-linejoin: miter; stroke-miterlimit: 10; fill: rgb(0,0,0); fill-rule: nonzero; opacity: 1;" transform=" matrix(1 0 0 1 0 0) " stroke-linecap="round" />
	<circle cx="33.417" cy="45.847" r="4.427" style="stroke: none; stroke-width: 1; stroke-dasharray: none; stroke-linecap: butt; stroke-linejoin: miter; stroke-miterlimit: 10; fill: rgb(126,198,197); fill-rule: nonzero; opacity: 1;" transform="  matrix(1 0 0 1 0 0) "/>
	<path d="M 33.415 51.271 c -2.992 0 -5.426 -2.435 -5.426 -5.427 s 2.434 -5.427 5.426 -5.427 s 5.427 2.435 5.427 5.427 S 36.407 51.271 33.415 51.271 z M 33.415 42.418 c -1.889 0 -3.426 1.537 -3.426 3.427 s 1.537 3.427 3.426 3.427 c 1.89 0 3.427 -1.537 3.427 -3.427 S 35.304 42.418 33.415 42.418 z" style="stroke: none; stroke-width: 1; stroke-dasharray: none; stroke-linecap: butt; stroke-linejoin: miter; stroke-miterlimit: 10; fill: rgb(0,0,0); fill-rule: nonzero; opacity: 1;" transform=" matrix(1 0 0 1 0 0) " stroke-linecap="round" />
</g>
</svg>